PathFileType	4	(X/Y/Z)	C:\Users\Basilio\Documents\Thesis Gigler\squatting_fais\c3dfiles\039\SLS_pre_back2\markers_experimental.trc
DataRate	CameraRate	NumFrames	NumMarkers	Units	OrigDataRate	OrigDataStartFrame	OrigNumFrames
200.000000	200.000000	4	63	mm	200.000000	1263	1684
Frame#	Time	FHD			LBHD			RBHD			C7			T10			LSHO			LUUPA			LMUPA			LDUPA			LLEP			LMEP			LRAD			LUL			LRFIN			RSHO			RUPA1			RMUPA			RDUPA			RLEP			RMEP			RRAD			RUL			RUFIN			LASI			RASI			USACR			LSACR			RSACR			LTHI1			LTHI2			LTHI3			LTHI4			LMFC			LTIB1			LTIB2			LTIB3			LTIB4			LLMAL			LMMAL			LHEE			LMT1			LMT2			LMT5			RTHI			RTHI2			RTHI3			RTHI4			RLFC			RMFC			RTIB1			RTIB2			RTIB3			RTIB4			RLMAL			RMMAL			RHEE			RMT1			RMT2			RMT5			LLFC			CLAV			*61			*62			
		X1	Y1	Z1	X2	Y2	Z2	X3	Y3	Z3	X4	Y4	Z4	X5	Y5	Z5	X6	Y6	Z6	X7	Y7	Z7	X8	Y8	Z8	X9	Y9	Z9	X10	Y10	Z10	X11	Y11	Z11	X12	Y12	Z12	X13	Y13	Z13	X14	Y14	Z14	X15	Y15	Z15	X16	Y16	Z16	X17	Y17	Z17	X18	Y18	Z18	X19	Y19	Z19	X20	Y20	Z20	X21	Y21	Z21	X22	Y22	Z22	X23	Y23	Z23	X24	Y24	Z24	X25	Y25	Z25	X26	Y26	Z26	X27	Y27	Z27	X28	Y28	Z28	X29	Y29	Z29	X30	Y30	Z30	X31	Y31	Z31	X32	Y32	Z32	X33	Y33	Z33	X34	Y34	Z34	X35	Y35	Z35	X36	Y36	Z36	X37	Y37	Z37	X38	Y38	Z38	X39	Y39	Z39	X40	Y40	Z40	X41	Y41	Z41	X42	Y42	Z42	X43	Y43	Z43	X44	Y44	Z44	X45	Y45	Z45	X46	Y46	Z46	X47	Y47	Z47	X48	Y48	Z48	X49	Y49	Z49	X50	Y50	Z50	X51	Y51	Z51	X52	Y52	Z52	X53	Y53	Z53	X54	Y54	Z54	X55	Y55	Z55	X56	Y56	Z56	X57	Y57	Z57	X58	Y58	Z58	X59	Y59	Z59	X60	Y60	Z60	X61	Y61	Z61	X62	Y62	Z62	X63	Y63	Z63	

1264	6.315	-189.5539855957032	1728.76513671875	-664.4741210937501	-354.0985107421876	1714.8662109375	-778.1308593750002	-321.1069335937501	1716.693359375	-640.6769409179689	-405.0729370117189	1551.776123046875	-712.4006958007814	-465.9767456054689	1254.612548828125	-751.4263305664064	-342.6821594238282	1561.285766601563	-874.302429199219	-186.0068664550782	1518.110595703125	-993.6834106445315	-160.2365875244141	1549.919189453125	-964.5684204101565	-116.7702102661133	1525.833251953125	-997.4234008789065	-49.22778701782228	1532.625	-995.8916015625002	-44.70444869995118	1461.609375	-963.6097412109377	231.9129180908204	1558.707763671875	-912.8811035156252	229.9233856201172	1567.027587890625	-988.8753051757815	305.4187622070313	1606.484497070313	-907.1734619140627	-273.0126342773438	1531.67333984375	-554.6794433593751	-112.4649734497071	1450.554077148438	-469.7488708496095	-85.65222167968751	1487.178955078125	-490.7136230468751	-42.64625549316407	1448.468627929688	-472.384490966797	20.56286430358887	1464.509155273438	-484.6321105957032	23.66574096679688	1402.948364257813	-532.3284912109376	297.8672790527344	1526.865356445313	-592.4479370117189	307.6181335449219	1510.1728515625	-518.7369384765626	376.5340576171876	1573.203002929688	-591.9445190429689	-345.7517700195313	1052.033081054688	-887.659118652344	-323.8092346191407	1043.300537109375	-667.2191772460939	-507.6275024414064	1127.179565429688	-756.5058593750001	-518.1425781250001	1095.736450195313	-783.7385253906252	-511.6746520996095	1094.76806640625	-724.3310546875001	-374.8612365722657	795.671813964844	-998.6192626953127	-323.4229125976563	731.1287841796876	-1021.951416015625	-276.6613769531251	741.4624023437501	-1018.480285644531	-334.8240356445313	669.9757690429689	-1013.281372070313	-270.6479797363282	536.6692504882814	-916.9125976562502	-389.7964172363282	475.2868957519532	-982.598571777344	-455.124237060547	535.7794799804689	-995.3996582031252	-446.5602111816407	493.7405395507814	-990.1778564453127	-506.2726440429689	466.1926574707032	-932.502136230469	-693.6289672851564	480.1173400878907	-901.4405517578127	-648.4584960937501	462.7620239257814	-828.9970703125002	-719.4110717773439	544.8056030273439	-848.9993286132815	-696.5949707031251	315.5114135742188	-806.5527954101565	-725.1917114257814	316.4189147949219	-838.4556274414065	-781.9539184570315	352.5468444824219	-859.4317626953127	-319.1085510253907	779.6406860351565	-608.0270385742189	-265.6926269531251	738.8431396484376	-612.0970458984376	-236.0325317382813	750.3353881835939	-620.6260986328126	-270.7284545898438	654.5609741210939	-628.6532592773439	-272.6815185546876	521.9793701171876	-665.7466430664064	-242.7277984619141	527.7178344726564	-779.7957763671877	-257.2033081054688	315.6047668457032	-710.9052734375001	-349.6238403320313	260.1307373046876	-707.3374633789064	-305.2482910156251	245.8421936035157	-711.8121948242189	-293.5957641601563	201.0755462646485	-750.3839721679689	-370.0932312011719	114.6575775146485	-738.3488159179689	-340.2752075195313	138.3318176269532	-821.090026855469	-440.7401123046876	97.54465484619143	-793.5450439453127	-216.0052185058594	55.16138458251955	-806.3007812500002	-219.5687561035157	55.05458068847658	-760.4285278320314	-274.2716979980469	35.17792129516602	-709.0058593750001	-311.1181335449219	587.0721435546876	-1015.927429199219	-266.0603332519532	1479.858764648438	-728.1301879882814	nan	nan	nan	nan	nan	nan	
1265	6.32	-189.7139587402344	1729.7412109375	-664.5186157226564	-354.4377136230469	1716.196166992188	-778.0921630859377	-321.1562805175782	1718.175659179688	-640.7329101562501	-405.2627563476564	1553.130249023438	-712.4116210937501	-465.705047607422	1255.67431640625	-751.3579711914064	-342.1465148925782	1562.309936523438	-874.065856933594	-186.0623016357422	1519.214111328125	-993.694519042969	-160.2245178222657	1551.163208007813	-964.6631469726565	-116.7076568603516	1526.860229492188	-997.4899902343752	-49.12906646728517	1533.668212890625	-995.9443969726565	-44.95972061157227	1463.1650390625	-962.7757568359377	232.0322418212891	1559.545288085938	-912.7028808593752	230.0223541259766	1568.099243164063	-988.8314208984377	305.4324035644532	1607.346557617188	-906.9564208984377	-272.9881591796876	1532.910522460938	-554.6334838867189	-112.1556015014649	1452.196655273438	-469.5963134765626	-85.62045288085939	1488.440551757813	-490.6130371093751	-42.66356658935548	1449.768188476563	-472.5627441406251	20.4570426940918	1466.0322265625	-484.5166931152345	23.39204406738282	1403.605590820313	-532.3422851562501	297.9049377441407	1527.801879882813	-592.2809448242189	307.5970764160157	1510.839111328125	-518.7429199218751	376.4992675781251	1574.15869140625	-591.8075561523439	-345.5209960937501	1053.153076171875	-887.5290527343752	-323.4655151367188	1044.33056640625	-667.2102050781251	-507.3291931152345	1128.218872070313	-756.3559570312501	-517.4678955078126	1096.632568359375	-783.5415649414065	-511.1229553222657	1095.6474609375	-724.1536254882814	-374.2879333496094	796.8562622070315	-998.4996337890627	-322.8752441406251	732.0101318359376	-1021.802368164063	-276.1046142578126	742.4936523437501	-1018.181945800781	-334.3898315429688	671.1383666992189	-1013.128784179688	-269.6968994140626	537.9205322265626	-916.5122680664065	-388.8064575195314	476.2666931152345	-983.3312988281252	-454.6220703125001	536.7192382812501	-995.2630615234377	-445.8915405273439	494.9036254882814	-989.8148193359377	-505.7581481933595	467.0498046875001	-932.200622558594	-693.3995361328126	481.005340576172	-901.436462402344	-648.0423583984376	463.5012817382814	-829.2633056640627	-719.0830688476564	545.2890014648439	-849.013854980469	-696.0767822265626	316.2253112792969	-806.5205078125002	-724.8170166015626	316.1836242675782	-838.5854492187502	-781.383239746094	353.0026550292969	-859.5854492187502	-319.2920837402344	780.355163574219	-608.1995849609376	-265.7188110351563	739.7568359375001	-611.9870605468751	-236.3815917968751	751.0056762695314	-620.8948974609376	-271.3358459472657	655.1775512695314	-629.1065063476564	-273.4981384277344	522.6651000976564	-666.1008911132814	-243.938217163086	528.2322387695314	-780.1599121093752	-257.7257995605469	316.0466918945313	-711.1331176757814	-350.0333862304688	260.3565368652344	-707.6598510742189	-305.6670837402344	246.0274810791016	-711.9483642578126	-293.9790344238282	201.2929992675782	-750.6970825195314	-370.0999450683594	114.7165451049805	-738.3718872070314	-340.4204101562501	138.340576171875	-821.2454833984377	-440.7326660156251	97.54153442382815	-793.6503906250002	-216.0090789794922	55.06296539306642	-806.3260498046877	-219.5807037353516	55.01829528808595	-760.4313964843751	-274.2926635742188	35.21761322021485	-709.0089111328126	-310.9854431152344	588.1940307617189	-1015.622619628906	-265.5752868652344	1481.776489257813	-728.1426391601564	nan	nan	nan	nan	nan	nan	
1266	6.325	-189.6338806152344	1731.241333007813	-664.4403076171876	-354.3287658691407	1717.370361328125	-778.003112792969	-321.2791442871094	1719.183837890625	-640.7977905273439	-405.2362365722657	1554.23876953125	-712.3724975585939	-465.6448974609376	1256.70361328125	-751.2695312500001	-342.3554687500001	1563.399047851563	-874.2449340820315	-186.146240234375	1520.260620117188	-993.644226074219	-160.27294921875	1551.962158203125	-964.6160888671877	-116.7741470336914	1527.884521484375	-997.406433105469	-49.27988433837892	1534.672485351563	-995.918151855469	-44.7833366394043	1463.583129882813	-963.4289550781252	231.9196929931641	1560.651245117188	-912.5938720703127	230.0107574462891	1568.999145507813	-988.6411743164065	305.3575439453126	1608.866821289063	-907.0004882812502	-273.1237182617188	1534.068603515625	-554.6090698242189	-112.7295303344727	1452.790283203125	-469.893280029297	-85.75337219238283	1489.325439453125	-490.3861389160157	-43.04337310791016	1450.237060546875	-472.5742492675782	20.46820068359375	1466.773803710938	-484.3376464843751	23.4189453125	1405.015014648438	-531.9924316406251	298.3013000488282	1528.531860351563	-592.2797241210939	307.4321899414063	1511.973022460938	-518.4324340820314	376.5416870117188	1575.1796875	-591.7678222656251	-345.1726379394532	1054.494018554688	-887.7412719726565	-322.9910278320313	1045.155029296875	-667.1781005859376	-506.8128356933595	1129.342041015625	-756.1864624023439	-517.0402221679689	1097.681762695313	-783.444030761719	-510.8891906738282	1096.7939453125	-723.9963378906251	-373.8232727050782	797.9367675781252	-998.2329101562502	-322.3034667968751	733.2816162109376	-1021.432678222656	-275.6007995605469	743.7384033203126	-1017.934936523438	-333.8314514160157	672.0842285156251	-1012.807434082031	-269.3856811523438	539.0322875976564	-916.2753906250002	-389.0568237304689	478.4847717285157	-983.6043090820315	-454.282196044922	537.6736450195314	-995.0080566406252	-445.6615295410157	495.4093017578126	-989.818054199219	-505.210662841797	467.7759399414064	-932.509216308594	-692.9409790039064	481.5348510742189	-901.4711914062502	-647.7037963867189	464.082000732422	-829.210632324219	-719.0031738281251	545.6393432617189	-849.0747680664065	-695.4288330078126	316.8003540039063	-806.6599121093752	-724.1552734375001	316.8024597167969	-838.782409667969	-780.930603027344	353.4248352050782	-859.848571777344	-319.4330444335938	781.2558593750002	-608.4116210937501	-266.2054748535157	740.1809692382814	-612.4429321289064	-236.7082061767579	751.5106201171876	-621.1572875976564	-272.2680969238282	656.0571899414064	-629.5595703125001	-274.7147521972657	523.0354003906251	-666.6163330078126	-245.2038116455079	528.6832275390626	-780.5340576171877	-258.3236083984376	316.6039428710938	-711.3732910156251	-350.4281921386719	260.3744506835938	-707.8623657226564	-306.0768432617188	246.2030792236329	-712.0746459960939	-294.2281188964844	201.1688995361329	-751.0770263671876	-370.1574096679688	114.7785873413086	-738.5058593750001	-340.5623168945313	138.3655700683594	-821.4127197265627	-440.7188415527345	97.55545043945315	-793.7361450195315	-216.1814575195313	55.1753387451172	-806.4323730468752	-219.6443176269532	54.97118377685548	-760.4695434570314	-274.3155517578126	35.22932815551759	-708.9786987304689	-310.3598327636719	589.1875610351564	-1015.290771484375	-265.5592651367188	1482.625732421875	-728.0820922851564	nan	nan	nan	nan	nan	nan	
1267	6.33	-189.6426849365235	1732.191650390625	-664.5161132812501	-354.6159362792969	1718.656127929688	-778.1723632812502	-321.2992248535157	1720.785034179688	-640.8104858398439	-405.3919372558595	1555.442260742188	-712.3998413085939	-465.4508056640626	1257.680541992188	-751.1116333007814	-342.7596740722657	1564.769897460938	-874.3267822265627	-186.2140502929688	1521.28857421875	-993.6662597656252	-160.2180938720703	1552.957763671875	-964.5705566406252	-116.6866912841797	1528.843017578125	-997.3823242187502	-49.30250549316408	1535.574829101563	-995.9124755859377	-44.69927978515626	1464.649169921875	-963.3872070312502	231.9375305175782	1561.731689453125	-912.691101074219	229.9701080322266	1570.045532226563	-988.5979003906252	305.4592895507813	1609.451416015625	-906.8396606445315	-273.1717834472657	1535.240844726563	-554.5352783203126	-112.913688659668	1454.004150390625	-470.0138244628907	-85.84787750244142	1490.754272460938	-490.382781982422	-42.96735000610352	1451.48779296875	-472.3884582519532	20.29629516601563	1467.9931640625	-484.2078857421876	23.40451431274414	1405.791259765625	-531.9140014648439	298.1935424804688	1529.423095703125	-592.1655273437501	307.3258056640626	1513.060424804688	-518.3577880859376	376.5231628417969	1575.9404296875	-591.6918334960939	-344.6738891601563	1055.652709960938	-887.7707519531252	-322.5519409179688	1046.24267578125	-667.0717163085939	-506.3815002441407	1130.182373046875	-755.9393310546876	-516.5158691406251	1098.579833984375	-783.312683105469	-510.2745056152345	1097.737670898438	-723.9414672851564	-373.3487243652344	798.9683227539065	-998.0827636718752	-321.8948974609376	734.3530273437501	-1021.237060546875	-275.0207214355469	744.6634521484376	-1017.502807617188	-333.2773132324219	673.0939941406251	-1012.642395019531	-269.3226928710938	539.8037719726564	-916.0838012695315	-387.5104064941407	477.6059875488282	-982.2719726562502	-453.9948120117189	538.5904541015626	-994.8928833007815	-444.8257141113282	496.837860107422	-989.5948486328127	-504.6268920898439	468.5984802246095	-931.777770996094	-692.6356811523439	482.1609497070314	-901.566345214844	-647.5187377929689	464.8021850585939	-829.461608886719	-718.7453613281251	546.1678466796876	-849.113952636719	-694.9105224609376	317.3208007812501	-806.792175292969	-723.5716552734376	317.2506713867188	-838.8997802734377	-780.3822021484377	353.8242797851563	-859.9854125976565	-319.6013183593751	781.956726074219	-608.5725097656251	-266.4734802246094	740.7748413085939	-612.9250488281251	-237.1035308837891	751.9210815429689	-621.3724975585939	-272.8604125976563	656.5107421875001	-629.8515625000001	-275.9800720214844	523.5264282226564	-666.8287353515626	-246.3587036132813	528.9851074218751	-781.001403808594	-258.9341430664063	316.8044128417969	-711.6994018554689	-350.8597412109376	260.4782409667969	-708.3132934570314	-306.4043579101563	246.3809204101563	-712.2457885742189	-294.5691833496094	201.4782867431641	-751.3021850585939	-370.2190246582032	114.7938385009766	-738.5817871093751	-340.7012634277344	138.3889923095703	-821.5880126953127	-440.7357788085939	97.53668975830081	-793.7781372070315	-216.1909179687501	55.0587615966797	-806.3796997070315	-219.6216888427735	54.95437240600587	-760.4768066406251	-274.3342590332032	35.3147087097168	-708.9615478515626	-310.0917358398438	590.2594604492189	-1015.085327148438	-266.3566589355469	1483.597534179688	-727.9938964843751	-309.8541870117188	590.1928710937501	-1014.986389160156	nan	nan	nan	
